<svg xmlns="http://www.w3.org/2000/svg" xmlns:xlink="http://www.w3.org/1999/xlink" viewBox="0 0 741.89 342.17"><defs><style>.cls-1{fill:url(#Dégradé_sans_nom_54);}.cls-2{fill:#fff;}.cls-3{fill:url(#Dégradé_sans_nom_55);}.cls-4{fill:url(#Nouvelle_nuance_de_dégradé_1);}</style><linearGradient id="Dégradé_sans_nom_54" x1="150.81" x2="150.81" y2="342.17" gradientUnits="userSpaceOnUse"><stop offset="0" stop-color="#0454a4"/><stop offset="1" stop-color="#06a6e9"/></linearGradient><linearGradient id="Dégradé_sans_nom_55" x1="439.2" y1="72.33" x2="439.2" y2="95.47" gradientUnits="userSpaceOnUse"><stop offset="0" stop-color="#044c83"/><stop offset="1" stop-color="#06a2e6"/></linearGradient><linearGradient id="Nouvelle_nuance_de_dégradé_1" x1="206.85" y1="216.17" x2="206.85" y2="216.65" gradientUnits="userSpaceOnUse"><stop offset="0" stop-color="#044c83"/><stop offset="1" stop-color="#06a1d1"/></linearGradient></defs><g id="Calque_2" data-name="Calque 2"><g id="Calque_1-2" data-name="Calque 1"><path class="cls-1" d="M22.48,99.65c9-5.37,17.82-10.87,26.73-16.33,30.94-18.92,62-37.76,92.8-56.87,3.4-2.11,5.58-1.93,8.77,0q38,23.61,76.23,46.87a10,10,0,0,0,4.79,1.34c6.26.14,12.53,0,18.79,0,2,0,3.25.43,3.9,2.84,3,11,15.22,19,27.07,16.67,14-2.79,23.11-17.43,19.11-31.15-3.05-10.46-13-18.82-23.48-18.15-8.12.5-14.3,4.06-19.11,10.5a6.39,6.39,0,0,1-3.75,2.35,30,30,0,0,1-7.44-.18c-3.43-.43-6.93.08-10.24-2-16.46-10.26-33.07-20.25-49.6-30.37C173.28,16.81,159.54,8.34,145.94,0c-3.46,2.14-6.75,4.2-10.06,6.2Q69.29,46.81,2.68,87.34A4.61,4.61,0,0,0,0,91.85q.12,78.63,0,157.26a4.84,4.84,0,0,0,2.51,4.65c11.34,7.21,22.59,14.64,34,21.8,2.77,1.74,3.27,3.28,2.15,6.41-3.43,9.52-.16,19.71,7.94,26.33a23.7,23.7,0,0,0,27.16,2.29c3.08-1.85,5.76-4.4,8.73-6.71l1.19.72q29.85,18.4,59.63,36.8a3.46,3.46,0,0,0,4.31,0c15.5-9.72,31.09-19.29,46.62-29q48.23-30.12,96.43-60.29a4.45,4.45,0,0,0,2.5-4.3q0-12.69,0-25.37H272.51c0,4.13,0,8.26,0,12.39a6.23,6.23,0,0,1-3.37,6.12q-60.62,38-121.07,76.31c-2.26,1.44-3.81,1.46-6,.1-17.66-10.75-35.4-21.33-53-32.08a7.19,7.19,0,0,1-2.75-3.61C80.81,265.24,64.06,260.22,53,265.41A3.87,3.87,0,0,1,49.9,265c-7-4.37-13.84-9.15-21-13.23-6.34-3.61-8.62-9.18-8.62-15.81-.13-44.09-.06-88.2-.13-132.29A4.13,4.13,0,0,1,22.48,99.65ZM277.85,59.76c4.93,0,8.89,4.55,8.94,10.29a10.24,10.24,0,0,1-9.8,10c-4.94.05-9.69-4.82-9.79-10.06C267.09,64.52,272,59.76,277.85,59.76ZM62.69,278.92c5.58.12,9.61,4.58,9.46,10.47s-4.55,9.95-10.5,9.87c-5.47-.1-9.22-4.51-9.08-10.68C52.7,282.6,56.69,278.81,62.69,278.92Z"/><path class="cls-2" d="M207.62,216.65l27.25,21.24c-13.12,8.12-26.07,16.13-39,24.17q-23.49,14.55-46.9,29.12c-1.5.95-2.59,1.14-4.21.13q-49.6-30.94-99.32-61.71c-2.38-1.48-3.19-3-3.19-5.87q.16-53.62,0-107.31A4.81,4.81,0,0,1,45,111.63q50-30.64,99.81-61.49c1.58-1,2.65-1.13,4.27-.12q43.11,27,86.26,53.82l-27.19,22a4,4,0,0,1-1.83-.71c-18.86-11.89-37.81-23.6-56.69-35.46-2.31-1.46-4-1.33-6.3.15q-32.53,20.16-65.24,40a4.64,4.64,0,0,0-2.67,4.58q.18,36.15,0,72.29a4.21,4.21,0,0,0,2.33,4.13q32.67,20.22,65.31,40.51c2.47,1.53,4.3,1.61,6.85,0,18.64-11.71,37.37-23.22,56.14-34.75.06,0,.1-.07.16-.09a4.15,4.15,0,0,1,.76-.39h0Z"/><path class="cls-2" d="M393.8,72.37v34.74c-10.1,0-19.43-.1-28.77,0-12.71.17-25.4,10.28-25.81,22.16-.6,18-.77,36,.06,54,.73,15.95,13.85,24.2,28.28,24.49,14.77.31,29.54.13,44.32.16h3.72V72.37Zm-.31,113.82c-8.55,0-16.84.46-25.05-.16-5.63-.42-8.71-4.59-8.77-10.35q-.21-18.81,0-37.61c.05-5.55,3.66-9.39,9-9.54,8.15-.26,16.31-.07,24.76-.07Z"/><path class="cls-2" d="M741.84,156.94h-.32c0-6.85,0-13.71,0-20.58C741.38,119.54,728.79,107,712,107c-9.5,0-19,0-28.5,0-14.68.14-30.08,11.75-29.77,29.83.24,14.11,0,28.23,0,42.35,0,14.61,9.19,26.57,23.62,27.93a201.69,201.69,0,0,0,39.31,0c16.28-1.65,25.73-14.38,25.21-30.79C741.67,169.87,741.84,163.4,741.84,156.94ZM720.46,176c-.07,7-4.31,10.89-11.27,10.93q-11.67.06-23.35,0c-6.62,0-10-3.13-10.23-9.82-.22-6.33-.05-12.67-.05-19h-.23c0-6-.13-11.9,0-17.83q.32-11.73,12.06-12.05c7.26-.17,14.53-.15,21.79,0,6.63.16,10.89,4.23,11,10.94Q720.66,157.57,720.46,176Z"/><path class="cls-2" d="M326.32,144.25a89.3,89.3,0,0,0-.81-13c-2.21-13.91-13.54-24.39-27.88-23.71-7.5.35-15,0-22.56,0-12.12,0-11.55.16-12.11.3-11,2.74-19.52,13.92-22,24.54-.24,1-.32,6.82-.5,18.48-.09,6.29-.16,15.68-.17,17.11,0,3,0,6.1,0,6.1,0,2.74,0,4.22,0,4.59-.23,14.71,10.38,27.38,25,28.62a225.8,225.8,0,0,0,31.95.73c16.6-.94,29.64-13,29.22-30.91C326.15,166.17,326.43,155.2,326.32,144.25ZM305.1,157.56H305c0,6.06.1,12.11,0,18.17-.13,6.67-4.6,11.12-11.18,11.21-7.38.07-14.75.05-22.14,0-5.77,0-9.27-3-9.44-8.82q-.54-19.93-.38-39.88c.05-5.72,3.7-9.62,9.32-9.82a226.13,226.13,0,0,1,24.42.47c6.09.45,9.37,4.67,9.48,10.89C305.18,145.69,305.1,151.62,305.1,157.56Z"/><path class="cls-2" d="M550.44,207.75h-22V203.3q0-30.3,0-60.58c0-9.43-4.31-13.73-13.64-13.73h-29v78.63H463.16V107h25.16c9.63,0,19.27-.08,28.89,0,9.3.12,18,2,24.77,9.14,5.74,6.07,8.23,13.59,8.35,21.57C550.64,161,550.44,184.17,550.44,207.75Z"/><path class="cls-2" d="M642.65,207.78c-5.2,0-9.9,0-14.61,0-12.53-.07-25.07.05-37.6-.29-16.62-.47-28-12.35-28-28.88,0-13.73.45-27.47-.12-41.17-.64-14.75,11.14-27,24-29.68a32.84,32.84,0,0,1,6.23-.76c14.91,0,29.82,0,44.73,0,1,0,2.08.09,3.45.15-1.16,6.6-2.17,13-3.52,19.41-.17.79-2.13,1.69-3.26,1.71-9.24.14-18.47.08-27.72.1h-4.74c-14.86.14-18.73,4.37-17.56,19.59h50.42c-1.2,6.86-2.29,13.06-3.44,19.6h-47.5c.62,4.65.74,9,1.88,13a8.67,8.67,0,0,0,8.84,6.59c13.58,0,27.15-.1,40.74-.15,1.56,0,3.13,0,4.83,0C640.72,194,641.67,200.69,642.65,207.78Z"/><rect class="cls-2" x="428.79" y="107.19" width="21.62" height="100.26"/><rect class="cls-3" x="428.69" y="72.33" width="21.01" height="23.14"/><path class="cls-4" d="M207.62,216.65h-1.55c.06,0,.1-.07.16-.09a4.15,4.15,0,0,1,.76-.39h0Z"/></g></g></svg>